<?xml version="1.0" standalone="no"?>
<!DOCTYPE svg PUBLIC "-//W3C//DTD SVG 20010904//EN"
 "http://www.w3.org/TR/2001/REC-SVG-20010904/DTD/svg10.dtd">
<svg version="1.0" xmlns="http://www.w3.org/2000/svg"
 width="512.000000pt" height="512.000000pt" viewBox="0 0 512.000000 512.000000"
 preserveAspectRatio="xMidYMid meet">
<metadata>
Created by potrace 1.14, written by Peter Selinger 2001-2017
</metadata>
<g transform="translate(0.000000,512.000000) scale(0.100000,-0.100000)"
fill="#000000" stroke="none">
<path d="M597 4264 c-4 -4 -7 -682 -7 -1508 0 -826 0 -1525 0 -1553 l0 -53
-154 0 c-142 0 -155 -2 -186 -22 -46 -31 -69 -66 -74 -111 -8 -66 33 -132 97
-156 20 -8 712 -11 2288 -11 2437 0 2298 -3 2345 51 47 55 53 122 15 182 -43
70 -2 67 -865 67 l-776 0 0 1560 0 1560 -370 0 -370 0 0 -204 0 -204 -300 1
-299 0 -3 96 -3 96 -302 0 -303 -1 0 108 0 108 -363 0 c-200 0 -367 -3 -370
-6z"/>
<path d="M3959 4126 c-2 -2 -22 -7 -44 -10 -74 -12 -100 -16 -125 -21 -78 -16
-70 -15 -215 -39 -49 -9 -99 -18 -110 -20 -11 -2 -41 -6 -67 -10 -41 -6 -46
-10 -43 -29 3 -12 18 -101 35 -197 16 -96 32 -187 35 -202 10 -54 15 -85 45
-253 16 -93 36 -210 45 -260 9 -49 18 -103 21 -120 2 -16 7 -41 9 -55 11 -56
15 -76 20 -100 4 -25 30 -178 40 -235 3 -16 8 -41 10 -55 3 -14 8 -37 10 -53
3 -15 10 -54 15 -87 6 -33 13 -70 15 -82 32 -191 50 -291 89 -508 3 -14 16
-92 30 -175 14 -82 28 -161 31 -175 3 -14 9 -50 15 -80 5 -30 12 -68 15 -85 3
-16 8 -47 11 -68 l7 -38 45 6 c25 3 48 8 51 9 3 2 28 7 55 10 27 4 52 9 55 10
3 2 28 7 54 10 26 4 71 11 100 17 57 10 84 15 137 24 126 20 182 34 176 43 -2
4 -7 28 -11 52 -3 25 -8 52 -11 61 -3 10 -6 30 -9 45 -2 16 -6 43 -9 59 -2 17
-8 50 -11 75 -3 25 -10 61 -15 80 -5 19 -11 51 -14 70 -3 19 -12 71 -20 115
-9 44 -18 96 -21 115 -3 19 -10 60 -16 90 -5 30 -12 73 -15 95 -3 22 -11 72
-19 110 -13 67 -58 310 -70 385 -3 19 -10 62 -16 95 -6 33 -13 74 -15 90 -3
17 -7 41 -10 55 -7 32 -8 34 -40 220 -14 85 -30 175 -34 200 -5 25 -11 61 -14
80 -4 19 -11 58 -16 85 -5 28 -12 64 -14 80 -3 17 -8 46 -11 65 -4 19 -18 98
-31 175 -14 77 -26 145 -28 150 -1 6 -8 49 -16 98 l-13 87 -32 0 c-17 0 -34
-2 -36 -4z"/>
</g>
</svg>
