<?xml version="1.0" standalone="no"?>
<!DOCTYPE svg PUBLIC "-//W3C//DTD SVG 20010904//EN"
 "http://www.w3.org/TR/2001/REC-SVG-20010904/DTD/svg10.dtd">
<svg version="1.0" xmlns="http://www.w3.org/2000/svg"
 width="700.000000pt" height="700.000000pt" viewBox="0 0 700.000000 700.000000"
 preserveAspectRatio="xMidYMid meet">
<metadata>
Created by potrace 1.14, written by Peter Selinger 2001-2017
</metadata>
<g transform="translate(0.000000,700.000000) scale(0.100000,-0.100000)"
fill="#000000" stroke="none">
<path d="M3433 6405 c-76 -17 -136 -59 -178 -125 -12 -19 -52 -93 -90 -165
-37 -71 -85 -161 -105 -200 -21 -38 -58 -108 -82 -155 -25 -47 -59 -110 -75
-140 -16 -30 -60 -113 -98 -185 -37 -71 -80 -152 -95 -180 -15 -27 -56 -104
-90 -170 -35 -66 -80 -151 -100 -190 -21 -38 -58 -108 -82 -155 -95 -178 -142
-268 -183 -345 -112 -211 -136 -256 -180 -340 -26 -49 -64 -121 -85 -160 -21
-38 -62 -117 -93 -175 -30 -58 -68 -130 -84 -160 -16 -30 -58 -109 -93 -175
-34 -66 -75 -142 -90 -170 -15 -27 -52 -97 -82 -155 -73 -139 -144 -273 -178
-335 -15 -27 -60 -113 -100 -190 -40 -77 -84 -160 -98 -185 -24 -44 -70 -131
-180 -340 -30 -58 -71 -136 -92 -175 -48 -89 -122 -229 -173 -325 -141 -267
-146 -279 -140 -369 9 -118 86 -211 209 -253 54 -19 5346 -18 5410 0 129 37
218 167 207 300 -4 58 -28 114 -124 292 -28 52 -78 147 -111 210 -33 63 -78
147 -98 185 -41 77 -195 367 -273 515 -27 52 -64 122 -82 155 -18 33 -54 101
-80 150 -26 50 -67 126 -90 170 -23 44 -68 130 -100 190 -32 61 -72 137 -90
170 -68 126 -114 214 -175 330 -65 124 -130 247 -185 350 -18 33 -56 105 -85
160 -29 55 -69 132 -90 170 -20 39 -60 113 -87 165 -140 265 -239 452 -273
515 -20 39 -80 151 -133 251 -116 219 -178 336 -227 429 -20 39 -61 115 -90
170 -183 347 -225 427 -262 492 -68 121 -192 178 -325 148z m95 -958 c13 -23
53 -98 89 -167 36 -69 83 -156 103 -195 21 -38 63 -119 95 -180 32 -60 70
-133 86 -161 16 -28 29 -56 29 -62 0 -5 -30 -19 -67 -30 -67 -21 -87 -25 -188
-42 -54 -9 -291 -6 -340 5 -68 14 -154 38 -207 57 l-57 20 28 52 c15 28 54
101 86 161 32 61 70 133 85 160 15 28 60 113 101 190 108 208 123 235 129 235
3 0 15 -19 28 -43z m-657 -1301 c103 -45 237 -82 393 -110 132 -24 386 -24
521 -1 137 24 265 58 363 98 34 14 64 22 66 18 8 -14 76 -142 123 -231 28 -52
71 -133 95 -180 25 -47 71 -134 103 -195 32 -60 70 -132 85 -160 15 -27 51
-95 80 -150 29 -55 69 -131 90 -170 109 -205 170 -323 170 -331 -1 -5 -28 -29
-61 -54 -72 -53 -198 -176 -271 -263 -203 -244 -354 -596 -385 -897 -3 -30 -6
-56 -8 -58 -5 -6 -1475 -3 -1485 3 -5 3 -9 16 -9 28 3 60 -46 273 -91 402 -52
146 -188 400 -251 465 -8 8 -27 33 -44 55 -43 57 -189 202 -262 259 -60 47
-66 59 -43 91 4 6 27 48 52 95 25 47 68 128 95 180 73 138 135 254 183 345 44
82 84 158 185 350 32 61 83 157 114 215 31 58 70 131 86 162 17 32 35 58 41
58 6 0 36 -11 65 -24z m2453 -2091 c32 -60 75 -141 96 -180 21 -38 60 -113 87
-165 28 -52 69 -130 92 -172 l42 -78 -28 0 c-25 -1 -702 0 -764 0 l-27 0 13
68 c35 179 121 367 229 502 12 14 56 61 99 104 78 79 78 79 91 55 7 -13 38
-73 70 -134z m-3460 36 c104 -111 192 -261 244 -416 28 -85 56 -204 49 -212
-3 -2 -567 -5 -750 -3 l-48 0 39 73 c53 97 120 223 177 332 26 50 76 145 113
213 l65 123 35 -33 c19 -18 53 -53 76 -77z"/>
</g>
</svg>
